<svg id="Layer_1" data-name="Layer 1" xmlns="http://www.w3.org/2000/svg" viewBox="0 0 36.79 36.79"><defs><style>.cls-1{fill:#afafaf;}</style></defs><title>instaContact</title><path class="cls-1" d="M19.88,0a1.07,1.07,0,0,0,.33.11,14,14,0,0,1,3.15.56A17.22,17.22,0,0,1,27.14,2.2,16.42,16.42,0,0,1,30,4.11a21.09,21.09,0,0,1,1.78,1.63,18.46,18.46,0,0,1,4.35,7.65c.17.67.29,1.36.43,2a16.73,16.73,0,0,1,.22,4.06c0,.61-.14,1.22-.21,1.83a13.48,13.48,0,0,1-.8,3.21,23,23,0,0,1-1.32,2.9,23.42,23.42,0,0,1-1.88,2.75A13.16,13.16,0,0,1,30,32.66c-.71.52-1.4,1.07-2.15,1.53a16.16,16.16,0,0,1-4.67,2,19,19,0,0,1-2.12.46,23.48,23.48,0,0,1-2.79.17,17.47,17.47,0,0,1-2.6-.17,16,16,0,0,1-4.46-1.25,25.17,25.17,0,0,1-2.81-1.49,21.49,21.49,0,0,1-2.17-1.66A13.5,13.5,0,0,1,5,31a15,15,0,0,1-2.22-2.92,30.86,30.86,0,0,1-1.62-3.32,14.37,14.37,0,0,1-.69-2.43,15,15,0,0,1-.32-2.22A21.54,21.54,0,0,1,0,17a18.74,18.74,0,0,1,.73-3.9A16.06,16.06,0,0,1,2.39,9.33a24.87,24.87,0,0,1,1.86-2.7,25.86,25.86,0,0,1,1.94-2,11.86,11.86,0,0,1,2.65-2,23.58,23.58,0,0,1,2.94-1.45A21.55,21.55,0,0,1,14.72.36,17.13,17.13,0,0,1,16.61.12,1.51,1.51,0,0,0,16.87,0ZM6.25,18.45v5.06a7.06,7.06,0,0,0,7,7.06c3.36,0,6.73,0,10.09,0a8,8,0,0,0,1.76-.19,7.07,7.07,0,0,0,5.47-6.76c0-3.38,0-6.75,0-10.13a9.07,9.07,0,0,0-.06-1,7,7,0,0,0-6.92-6.18H13.38a8.39,8.39,0,0,0-1,.06,7.06,7.06,0,0,0-6.13,6.85Z"/><path class="cls-1" d="M28.65,18.44c0,1.78,0,3.56,0,5.34a5.13,5.13,0,0,1-4.35,4.84,7.42,7.42,0,0,1-.94.06c-3.46,0-6.92,0-10.37,0a5,5,0,0,1-4.83-4.84c-.05-3.49-.05-7,0-10.47a5,5,0,0,1,3.53-4.93,5.47,5.47,0,0,1,1.75-.27c3.31,0,6.63,0,9.94,0A5.15,5.15,0,0,1,28.48,12a6.47,6.47,0,0,1,.18,1.45c0,1.68,0,3.36,0,5ZM18.41,25a6.55,6.55,0,1,0-6.55-6.66A6.57,6.57,0,0,0,18.41,25Zm8.41-13.54a1.42,1.42,0,0,0-2.83,0,1.42,1.42,0,0,0,2.83,0Z"/><path class="cls-1" d="M23.05,18.45a4.66,4.66,0,1,1-4.85-4.7A4.64,4.64,0,0,1,23.05,18.45Z"/></svg>