<svg id="Layer_1" data-name="Layer 1" xmlns="http://www.w3.org/2000/svg" viewBox="0 0 26.72 37.06"><defs><style>.cls-1{fill:#afafaf;}</style></defs><title>locContact</title><path class="cls-1" d="M26.69,14.18c.24,2.43-.86,5-2.27,7.39C22.31,25.15,20,28.64,17.73,32.1a52.48,52.48,0,0,1-3.37,4.26c-.77.93-1.24.94-2,0-1.92-2.5-3.91-5-5.66-7.58s-3.3-5.42-4.87-8.18A13.45,13.45,0,0,1,.43,10.41,13.09,13.09,0,0,1,8.22,1.13,12.42,12.42,0,0,1,15.61.22a13.33,13.33,0,0,1,9.52,6.91A13.71,13.71,0,0,1,26.69,14.18Zm-13.4,6.38a6.88,6.88,0,0,0,0-13.75,6.93,6.93,0,0,0-6.67,6.57C6.47,17.45,10,20.75,13.29,20.56Z"/></svg>