<svg id="Layer_1" data-name="Layer 1" xmlns="http://www.w3.org/2000/svg" viewBox="0 0 36.11 36.31"><defs><style>.cls-1{fill:#afafaf;}</style></defs><title>mailContact</title><path class="cls-1" d="M18.14,6.65h0l-6.82-.1L2.86,6.42A2.75,2.75,0,0,0,.29,8.82a.38.38,0,0,0,.14.43c2.67,2.3,5.33,4.62,8,6.9,2.24,1.91,4.51,3.79,6.76,5.68a4.45,4.45,0,0,0,1.93,1A4.25,4.25,0,0,0,20.87,22c.51-.41,1-.79,1.55-1.2l13.51-11a.38.38,0,0,0,.14-.45,2.77,2.77,0,0,0-2.59-2.46l-5-.07Zm-1,29.41,7.34.12,8.69.13a2.77,2.77,0,0,0,2.62-2.47.32.32,0,0,0-.1-.33l-12.85-11a.21.21,0,0,0-.33,0,19.89,19.89,0,0,1-1.62,1.2,5.33,5.33,0,0,1-5.35.09,12.79,12.79,0,0,1-2-1.43.27.27,0,0,0-.4,0Q6.67,27.65.15,33a.36.36,0,0,0-.12.4,2.76,2.76,0,0,0,2.53,2.48l3.73.07ZM36.11,11.49l-12.23,10,12,10.32C36,25,36,18.27,36.11,11.49ZM.22,11,0,31.23l12.22-10Z"/><path class="cls-1" d="M18.14,6.65l10.32.16,5,.07a2.77,2.77,0,0,1,2.59,2.46.38.38,0,0,1-.14.45l-13.51,11c-.51.41-1,.79-1.55,1.2a4.25,4.25,0,0,1-3.75.81,4.45,4.45,0,0,1-1.93-1c-2.25-1.89-4.52-3.77-6.76-5.68-2.67-2.28-5.33-4.6-8-6.9a.38.38,0,0,1-.14-.43,2.75,2.75,0,0,1,2.57-2.4l8.46.13,6.82.1Z"/><path class="cls-1" d="M17.17,36.06,6.29,35.9l-3.73-.07A2.76,2.76,0,0,1,0,33.35.36.36,0,0,1,.15,33q6.53-5.3,13-10.61a.27.27,0,0,1,.4,0,12.79,12.79,0,0,0,2,1.43,5.33,5.33,0,0,0,5.35-.09,19.89,19.89,0,0,0,1.62-1.2.21.21,0,0,1,.33,0l12.85,11a.32.32,0,0,1,.1.33,2.77,2.77,0,0,1-2.62,2.47l-8.69-.13Z"/><path class="cls-1" d="M36.11,11.49C36,18.27,36,25,35.89,31.78l-12-10.32Z"/><path class="cls-1" d="M.22,11l12,10.31L0,31.23Z"/></svg>