<svg id="Layer_1" data-name="Layer 1" xmlns="http://www.w3.org/2000/svg" viewBox="0 0 36.37 36.36"><defs><style>.cls-1{fill:#afafaf;}</style></defs><title>phoneContact</title><path class="cls-1" d="M28.33,36.36A17,17,0,0,1,22.7,35a31.39,31.39,0,0,1-7.77-4.54A49.72,49.72,0,0,1,4.52,19.58,27.2,27.2,0,0,1,.73,12,14.38,14.38,0,0,1,0,7.53,2.66,2.66,0,0,1,.82,5.62C2.58,3.85,4.36,2.09,6.13.32c.42-.41.78-.36,1,.16q2.16,4,4.3,8.09a1.26,1.26,0,0,1-.21,1.54C10.65,10.74,10,11.35,9.4,12a2.13,2.13,0,0,0-.59,2.19,11.53,11.53,0,0,0,1.52,3.21A30.9,30.9,0,0,0,15,22.78a26.39,26.39,0,0,0,4.35,3.45,10.81,10.81,0,0,0,2.87,1.31,2.17,2.17,0,0,0,2.26-.62l2.11-2.11a1.22,1.22,0,0,1,1.66-.21L36,29.17c.49.29.54.66.14,1l-5.35,5.36A3,3,0,0,1,28.33,36.36Z"/><path class="cls-1" d="M35.82,19.28H34.47c-.34,0-.69,0-1,0-.16,0-.21,0-.22-.2a16.86,16.86,0,0,0-2.09-7.17,17.51,17.51,0,0,0-12.58-9.1c-.62-.12-1.26-.16-1.89-.23l-.14,0V0c.32,0,.63,0,.95.05a19,19,0,0,1,10,3.8,21.07,21.07,0,0,1,7.29,9.53A17.42,17.42,0,0,1,35.84,19a1.21,1.21,0,0,1,0,.19S35.83,19.22,35.82,19.28Z"/><path class="cls-1" d="M16.5,6A14.32,14.32,0,0,1,29.78,19.27h-.22c-.71,0-1.43,0-2.14,0-.19,0-.26-.05-.28-.24a11.2,11.2,0,0,0-1.75-5,11.55,11.55,0,0,0-8.65-5.4c-.18,0-.26-.06-.26-.27,0-.73,0-1.46,0-2.18C16.49,6.15,16.5,6.08,16.5,6Z"/><path class="cls-1" d="M23.73,19.28H22.42c-.23,0-.47,0-.7,0a.23.23,0,0,1-.28-.21,6.75,6.75,0,0,0-2.17-3.39,6.64,6.64,0,0,0-2.57-1.36.23.23,0,0,1-.21-.28c0-.64,0-1.28,0-2a8.11,8.11,0,0,1,4.29,1.85A8.29,8.29,0,0,1,23.73,19.28Z"/></svg>