<svg id="Layer_1" data-name="Layer 1" xmlns="http://www.w3.org/2000/svg" viewBox="0 0 36.36 36.39"><defs><style>.cls-1{fill:#afafaf;}</style></defs><title>waContact</title><path class="cls-1" d="M34.88,11.07A17.8,17.8,0,0,0,21.2.28,17.29,17.29,0,0,0,12.35,1a17.92,17.92,0,0,0-9,6.77A17.79,17.79,0,0,0,.06,18.32,17.7,17.7,0,0,0,2.38,27a.77.77,0,0,1,.07.66c-.24.79-.45,1.59-.67,2.39C1.19,32.16.6,34.23,0,36.39c2.92-.75,5.76-1.46,8.58-2.22a1.92,1.92,0,0,1,1.43.16,17.58,17.58,0,0,0,16.87-.28,17.53,17.53,0,0,0,9.19-12.91A16.89,16.89,0,0,0,34.88,11.07ZM22.62,32.55A14.79,14.79,0,0,1,10.25,31a1.16,1.16,0,0,0-1-.13c-1.45.39-2.91.75-4.36,1.13-.36.1-.49.11-.36-.34.43-1.42.81-2.86,1.22-4.28a.93.93,0,0,0-.12-.85A14.81,14.81,0,0,1,3.26,16.29a15,15,0,0,1,29.05-3.38,16.77,16.77,0,0,1,1,5.65A15,15,0,0,1,22.62,32.55Z"/><path class="cls-1" d="M27.4,23.05c-.5,3.28-3.53,4.32-6.17,3.53a19,19,0,0,1-9.63-6.74,11.58,11.58,0,0,1-2.41-4.57,5,5,0,0,1,1.65-5.22,1.78,1.78,0,0,1,1.55-.36c.84-.2,1.26.29,1.55,1.1.38,1,.84,2,1.29,3A.94.94,0,0,1,15.05,15c-.41.43-.77.89-1.17,1.34a.64.64,0,0,0-.09.82,12.09,12.09,0,0,0,6.43,5.45.56.56,0,0,0,.7-.24c.44-.57.9-1.14,1.33-1.72a.74.74,0,0,1,1.05-.27c1.19.56,2.38,1.12,3.58,1.65A.84.84,0,0,1,27.4,23.05Z"/></svg>