<svg id="Layer_1" data-name="Layer 1" xmlns="http://www.w3.org/2000/svg" viewBox="0 0 100.42 100.42"><defs><style>.cls-1{fill:#80f087;}.cls-2{fill:#fdfefd;}</style></defs><title>card</title><path class="cls-1" d="M50.1,100.21c-14.63-.22-27-5.51-37-16.28A48,48,0,0,1,.93,58.71,48.86,48.86,0,0,1,.41,46.05C2,29,10.17,15.89,24.91,7A46.34,46.34,0,0,1,43.77.6C57.25-.94,69.61,2.06,80.49,10.26A48.6,48.6,0,0,1,99.24,40.13a49.31,49.31,0,0,1,.88,12.94A49.58,49.58,0,0,1,59.05,99.46,48.72,48.72,0,0,1,50.1,100.21Zm1.18-36.53H64.79a2.68,2.68,0,0,0,2.95-2.93q0-10.14,0-20.28a2.81,2.81,0,0,0-3-3H38a2.81,2.81,0,0,0-3.09,3.12v20a2.76,2.76,0,0,0,3.05,3.07Z"/><path class="cls-2" d="M51.28,63.68H37.92a2.76,2.76,0,0,1-3.05-3.07v-20A2.81,2.81,0,0,1,38,37.5H64.69a2.81,2.81,0,0,1,3,3q0,10.14,0,20.28a2.68,2.68,0,0,1-2.95,2.93Zm.06-13c-4.53,0-9.05,0-13.58,0-.53,0-.71.11-.71.68,0,3.07,0,6.15,0,9.23,0,.88.13,1,1,1h26.5c.89,0,1-.09,1-1,0-3.08,0-6.15,0-9.23,0-.63-.2-.75-.79-.75C60.29,50.72,55.82,50.71,51.34,50.71Zm0-6.57c4.5,0,9,0,13.5,0,.55,0,.79-.1.76-.71-.06-.94,0-1.89,0-2.83,0-.59-.21-.82-.81-.82H37.94c-.68,0-.9.3-.88.92,0,.88,0,1.75,0,2.62,0,.63.16.83.81.83C42.34,44.13,46.82,44.14,51.3,44.14Z"/><path class="cls-1" d="M51.34,50.71c4.48,0,8.95,0,13.43,0,.59,0,.79.12.79.75,0,3.08,0,6.15,0,9.23,0,.86-.08,1-1,1H38.07c-.87,0-1-.14-1-1,0-3.08,0-6.16,0-9.23,0-.57.18-.68.71-.68C42.29,50.72,46.81,50.71,51.34,50.71Zm-2.17,6.4H47.35c-1.55,0-1.53,0-1.54,1.57,0,.5.13.68.65.67,1.46,0,2.91,0,4.37,0,1.66,0,1.65,0,1.58-1.69,0-.41-.14-.55-.55-.54C51,57.13,50.07,57.12,49.17,57.11Zm-7.69,0h-.65c-1.73,0-1.72,0-1.58,1.76,0,.33.14.52.46.52H43.2c.25,0,.38-.1.43-.38.26-1.69.09-1.91-1.57-1.91Z"/><path class="cls-1" d="M51.3,44.14c-4.48,0-9,0-13.44,0-.65,0-.85-.2-.81-.83.05-.87,0-1.74,0-2.62,0-.62.2-.92.88-.92h26.8c.6,0,.83.23.81.82,0,.94,0,1.89,0,2.83,0,.61-.21.72-.76.71C60.3,44.13,55.8,44.14,51.3,44.14Z"/><path class="cls-2" d="M49.17,57.11c.9,0,1.79,0,2.69,0,.41,0,.54.13.55.54.07,1.69.08,1.69-1.58,1.69-1.46,0-2.91,0-4.37,0-.52,0-.65-.17-.65-.67,0-1.57,0-1.57,1.54-1.57Z"/><path class="cls-2" d="M41.48,57.11h.58c1.66,0,1.83.22,1.57,1.91-.05.28-.18.38-.43.38H39.71c-.32,0-.44-.19-.46-.52-.14-1.76-.15-1.76,1.58-1.76Z"/></svg>