<svg id="Layer_1" data-name="Layer 1" xmlns="http://www.w3.org/2000/svg" viewBox="0 0 51.97 36.31"><defs><style>.cls-1{fill:#fff;}</style></defs><title>footMail</title><path class="cls-1" d="M26.12.28h0L16.3.16,4.12,0A3.78,3.78,0,0,0,.42,2.92a.45.45,0,0,0,.21.53c3.84,2.79,7.65,5.6,11.51,8.38,3.22,2.32,6.48,4.59,9.73,6.89a6.86,6.86,0,0,0,2.77,1.16,7,7,0,0,0,5.4-1c.74-.5,1.5-1,2.24-1.46Q42,10.78,51.72,4.1a.43.43,0,0,0,.2-.55,3.79,3.79,0,0,0-3.72-3L41,.48ZM24.71,36l10.57.15,12.51.16a3.79,3.79,0,0,0,3.77-3,.33.33,0,0,0-.15-.4L32.92,19.52a.35.35,0,0,0-.48,0c-.77.49-1.52,1-2.33,1.45a8.92,8.92,0,0,1-7.7.11,20.7,20.7,0,0,1-2.87-1.74.43.43,0,0,0-.57,0L.22,32.23a.4.4,0,0,0-.18.48,3.76,3.76,0,0,0,3.64,3l5.37.08ZM52,6.17,34.38,18.27,51.66,30.8C51.76,22.58,51.87,14.4,52,6.17ZM.32,5.5,0,30.14,17.59,18Z"/><path class="cls-1" d="M26.12.28,41,.48,48.2.56a3.79,3.79,0,0,1,3.72,3,.43.43,0,0,1-.2.55Q42,10.76,32.28,17.44c-.74.5-1.5,1-2.24,1.46a7,7,0,0,1-5.4,1,6.86,6.86,0,0,1-2.77-1.16c-3.25-2.3-6.51-4.57-9.73-6.89C8.28,9.05,4.47,6.24.63,3.45a.45.45,0,0,1-.21-.53A3.78,3.78,0,0,1,4.12,0L16.3.16l9.82.12Z"/><path class="cls-1" d="M24.71,36,9.05,35.81l-5.37-.08a3.76,3.76,0,0,1-3.64-3,.4.4,0,0,1,.18-.48L19,19.34a.43.43,0,0,1,.57,0,20.7,20.7,0,0,0,2.87,1.74,8.92,8.92,0,0,0,7.7-.11c.81-.41,1.56-1,2.33-1.45a.35.35,0,0,1,.48,0L51.41,32.91a.33.33,0,0,1,.15.4,3.79,3.79,0,0,1-3.77,3l-12.51-.16Z"/><path class="cls-1" d="M52,6.17c-.1,8.23-.21,16.41-.31,24.63L34.38,18.27Z"/><path class="cls-1" d="M.32,5.5,17.59,18,0,30.14Z"/></svg>