<svg id="Layer_1" data-name="Layer 1" xmlns="http://www.w3.org/2000/svg" viewBox="0 0 50 50"><defs><style>.cls-1{fill:#fff;}</style></defs><title>footInsta</title><path class="cls-1" d="M27,0a2.1,2.1,0,0,0,.46.16,18.2,18.2,0,0,1,4.28.75A23.87,23.87,0,0,1,36.89,3a21.76,21.76,0,0,1,3.86,2.6A28,28,0,0,1,43.17,7.8a24.75,24.75,0,0,1,4.11,5.81,23.83,23.83,0,0,1,1.79,4.6c.24.9.4,1.84.59,2.76A22.68,22.68,0,0,1,50,26.49c0,.83-.2,1.66-.3,2.49a18.08,18.08,0,0,1-1.08,4.36,30.51,30.51,0,0,1-1.8,3.94A30.45,30.45,0,0,1,44.24,41a17.89,17.89,0,0,1-3.42,3.37c-1,.71-1.91,1.46-2.93,2.08a21.88,21.88,0,0,1-6.34,2.68,24.25,24.25,0,0,1-2.88.62,30,30,0,0,1-3.79.23,26.09,26.09,0,0,1-3.54-.22,22.31,22.31,0,0,1-6.06-1.7,34.1,34.1,0,0,1-3.82-2,28.74,28.74,0,0,1-3-2.25,17,17,0,0,1-1.76-1.64,20,20,0,0,1-3-4,42.75,42.75,0,0,1-2.21-4.51,19.59,19.59,0,0,1-.94-3.31,21.82,21.82,0,0,1-.43-3A29.79,29.79,0,0,1,0,23.13a24.73,24.73,0,0,1,1-5.31,21.71,21.71,0,0,1,2.22-5.14A33.1,33.1,0,0,1,5.77,9c.79-1,1.76-1.8,2.64-2.69A16.78,16.78,0,0,1,12,3.64a31.56,31.56,0,0,1,4-2A29.14,29.14,0,0,1,20,.49,24.06,24.06,0,0,1,22.58.16,1.81,1.81,0,0,0,22.93,0ZM8.5,25.07c0,2.3,0,4.59,0,6.89a10.31,10.31,0,0,0,.07,1.24A9.63,9.63,0,0,0,18,41.55c4.57,0,9.14,0,13.71,0a11.45,11.45,0,0,0,2.4-.26,9.59,9.59,0,0,0,7.42-9.19V18.32a13.34,13.34,0,0,0-.09-1.41A9.57,9.57,0,0,0,32,8.51H18.19a12.44,12.44,0,0,0-1.37.08A9.59,9.59,0,0,0,8.5,17.9Z"/><path class="cls-1" d="M38.94,25.06c0,2.42,0,4.84,0,7.26A7,7,0,0,1,33,38.89a9.18,9.18,0,0,1-1.28.09c-4.7,0-9.4,0-14.1,0a6.87,6.87,0,0,1-6.56-6.59q-.09-7.11,0-14.22a6.83,6.83,0,0,1,4.79-6.71,7.61,7.61,0,0,1,2.37-.36c4.51,0,9,0,13.52,0a7,7,0,0,1,7,5.18,8.79,8.79,0,0,1,.24,2c0,2.28,0,4.56,0,6.84ZM25,33.92a8.9,8.9,0,1,0-8.91-9A8.92,8.92,0,0,0,25,33.92ZM36.45,15.53a1.92,1.92,0,1,0-3.84,0,1.92,1.92,0,0,0,3.84,0Z"/><path class="cls-1" d="M31.33,25.08a6.33,6.33,0,1,1-6.59-6.39A6.31,6.31,0,0,1,31.33,25.08Z"/></svg>