<svg id="Layer_1" data-name="Layer 1" xmlns="http://www.w3.org/2000/svg" viewBox="0 0 41.1 41.1"><defs><style>.cls-1{fill:#fff;}</style></defs><title>footPhone</title><path class="cls-1" d="M32,41.1a19.41,19.41,0,0,1-6.36-1.49,35.48,35.48,0,0,1-8.78-5.14A56.54,56.54,0,0,1,5.1,22.13,31.22,31.22,0,0,1,.82,13.57,16.68,16.68,0,0,1,0,8.52,3,3,0,0,1,.92,6.35l6-6C7.4-.1,7.81,0,8.12.54L13,9.68a1.44,1.44,0,0,1-.25,1.75c-.7.71-1.41,1.4-2.1,2.11A2.43,2.43,0,0,0,10,16a13.21,13.21,0,0,0,1.72,3.64,34.92,34.92,0,0,0,5.23,6.09,29,29,0,0,0,4.92,3.91,12.5,12.5,0,0,0,3.24,1.48,2.44,2.44,0,0,0,2.55-.71L30,28a1.4,1.4,0,0,1,1.88-.24L40.65,33c.54.33.6.74.16,1.19l-6.06,6.05A3.35,3.35,0,0,1,32,41.1Z"/><path class="cls-1" d="M40.49,21.79H39c-.4,0-.79,0-1.19,0-.17,0-.23-.06-.24-.23a19.36,19.36,0,0,0-2.36-8.11A19.87,19.87,0,0,0,21,3.17c-.7-.13-1.43-.17-2.14-.26l-.16,0V0c.36,0,.72,0,1.07.05A21.39,21.39,0,0,1,31,4.36a23.61,23.61,0,0,1,8.24,10.77,19.63,19.63,0,0,1,1.29,6.34,1.33,1.33,0,0,1,0,.2S40.5,21.72,40.49,21.79Z"/><path class="cls-1" d="M18.65,6.8a16.19,16.19,0,0,1,15,15h-.25c-.81,0-1.61,0-2.42,0-.21,0-.29-.06-.31-.28a12.82,12.82,0,0,0-2-5.62,13.05,13.05,0,0,0-9.78-6.1c-.2,0-.29-.07-.29-.3,0-.83,0-1.65,0-2.47C18.64,7,18.65,6.88,18.65,6.8Z"/><path class="cls-1" d="M26.82,21.79H25.34c-.26,0-.53,0-.79,0a.27.27,0,0,1-.32-.24,7.57,7.57,0,0,0-2.45-3.84,7.41,7.41,0,0,0-2.91-1.53.28.28,0,0,1-.24-.32c0-.72,0-1.45,0-2.23a9.23,9.23,0,0,1,4.85,2.09A9.4,9.4,0,0,1,26.82,21.79Z"/></svg>