<svg id="Layer_1" data-name="Layer 1" xmlns="http://www.w3.org/2000/svg" viewBox="0 0 44.65 44.69"><defs><style>.cls-1{fill:#fcfefd;}.cls-2{fill:#33bb47;}</style></defs><title>footWA</title><path class="cls-1" d="M0,44.69c.74-2.65,1.46-5.2,2.18-7.75C2.45,36,2.71,35,3,34a.93.93,0,0,0-.09-.81A21.53,21.53,0,0,1,.07,22.5a21.82,21.82,0,0,1,4-13A22,22,0,0,1,15.16,1.22,21.15,21.15,0,0,1,26,.35a21.84,21.84,0,0,1,16.8,13.24A20.82,20.82,0,0,1,44.29,26,21.52,21.52,0,0,1,33,41.81a21.62,21.62,0,0,1-20.72.35,2.3,2.3,0,0,0-1.76-.2C7.07,42.88,3.59,43.76,0,44.69Zm40.86-21.9a20.68,20.68,0,0,0-1.19-6.94A18.48,18.48,0,0,0,4,20,18.22,18.22,0,0,0,6.93,32.52a1.12,1.12,0,0,1,.14,1c-.5,1.75-1,3.52-1.49,5.26-.17.56,0,.54.44.43,1.78-.48,3.57-.92,5.35-1.4a1.41,1.41,0,0,1,1.21.17,18.27,18.27,0,0,0,15.2,2A18.45,18.45,0,0,0,40.86,22.79Z"/><path class="cls-2" d="M40.86,22.79A18.45,18.45,0,0,1,27.78,40a18.27,18.27,0,0,1-15.2-2,1.41,1.41,0,0,0-1.21-.17c-1.78.48-3.57.92-5.35,1.4-.44.11-.61.13-.44-.43.52-1.74,1-3.51,1.49-5.26a1.12,1.12,0,0,0-.14-1A18.22,18.22,0,0,1,4,20a18.48,18.48,0,0,1,35.67-4.16A20.68,20.68,0,0,1,40.86,22.79ZM15.21,11.89a2.23,2.23,0,0,0-1.9.45,6.16,6.16,0,0,0-2,6.4,14.27,14.27,0,0,0,3,5.62,23.27,23.27,0,0,0,11.83,8.27c3.23,1,7-.3,7.57-4.32A1,1,0,0,0,33,27c-1.48-.65-2.94-1.34-4.4-2a.92.92,0,0,0-1.29.33c-.53.72-1.09,1.42-1.63,2.12a.67.67,0,0,1-.86.3A14.89,14.89,0,0,1,16.93,21,.8.8,0,0,1,17,20c.49-.54.94-1.11,1.44-1.64A1.17,1.17,0,0,0,18.7,17c-.55-1.23-1.12-2.45-1.58-3.71C16.76,12.25,16.24,11.66,15.21,11.89Z"/><path class="cls-1" d="M15.21,11.89c1-.23,1.55.36,1.91,1.36.46,1.26,1,2.48,1.58,3.71a1.17,1.17,0,0,1-.22,1.42c-.5.53-.95,1.1-1.44,1.64a.8.8,0,0,0-.11,1,14.89,14.89,0,0,0,7.9,6.69.67.67,0,0,0,.86-.3c.54-.7,1.1-1.4,1.63-2.12A.92.92,0,0,1,28.61,25c1.46.69,2.92,1.38,4.4,2a1,1,0,0,1,.63,1.3c-.61,4-4.34,5.29-7.57,4.32a23.27,23.27,0,0,1-11.83-8.27,14.27,14.27,0,0,1-3-5.62,6.16,6.16,0,0,1,2-6.4A2.23,2.23,0,0,1,15.21,11.89Z"/></svg>