<svg id="Layer_1" data-name="Layer 1" xmlns="http://www.w3.org/2000/svg" viewBox="0 0 34.36 47.65"><defs><style>.cls-1{fill:#fff;}</style></defs><title>footLoc</title><path class="cls-1" d="M34.32,18.23c.31,3.12-1.11,6.43-2.92,9.5-2.72,4.61-5.65,9.09-8.6,13.55a68.83,68.83,0,0,1-4.33,5.47c-1,1.2-1.6,1.21-2.53,0-2.47-3.21-5-6.38-7.27-9.74S4.42,30,2.4,26.49A17.31,17.31,0,0,1,.55,13.39a16.84,16.84,0,0,1,10-11.93A15.92,15.92,0,0,1,20.07.28,17.15,17.15,0,0,1,32.31,9.17,17.64,17.64,0,0,1,34.32,18.23ZM17.08,26.44a8.84,8.84,0,0,0,0-17.68,8.9,8.9,0,0,0-8.57,8.45C8.32,22.44,12.83,26.68,17.08,26.44Z"/></svg>