<svg id="Layer_1" data-name="Layer 1" xmlns="http://www.w3.org/2000/svg" viewBox="0 0 100.42 100.42"><defs><style>.cls-1{fill:#6ed8fe;}.cls-2{fill:#fdfefe;}</style></defs><title>laundry</title><path class="cls-1" d="M51.46,100.2c-12.53,0-22.7-3.36-31.66-10.12A49.13,49.13,0,0,1,.36,54.19,51.28,51.28,0,0,1,2.76,34,49.67,49.67,0,0,1,28.86,4.88,50.27,50.27,0,0,1,43.22.67,52.87,52.87,0,0,1,53.43.31a49.73,49.73,0,0,1,33.7,15.92A48.8,48.8,0,0,1,99.27,40.09a53.18,53.18,0,0,1,.91,8.72,49.39,49.39,0,0,1-26.55,45.7,49.17,49.17,0,0,1-14.94,5A40.72,40.72,0,0,1,51.46,100.2Zm-1.27-35a4.81,4.81,0,0,0,1.38-.13,8.59,8.59,0,0,0,7.27-8.62,12.77,12.77,0,0,0-2.71-7.39,26.82,26.82,0,0,1-5.56-12.37c0-.26.07-.68-.36-.66s-.34.41-.38.69A23.41,23.41,0,0,1,45.4,47.51a18.27,18.27,0,0,0-3.68,7.65A8.68,8.68,0,0,0,50.19,65.24Z"/><path class="cls-2" d="M50.19,65.24a8.68,8.68,0,0,1-8.47-10.08,18.27,18.27,0,0,1,3.68-7.65,23.41,23.41,0,0,0,4.43-10.75c0-.28,0-.68.38-.69s.32.4.36.66A26.82,26.82,0,0,0,56.13,49.1a12.77,12.77,0,0,1,2.71,7.39,8.59,8.59,0,0,1-7.27,8.62A4.81,4.81,0,0,1,50.19,65.24Zm-6.08-9c0,1.78.66,2.61,1.78,2.63a1.68,1.68,0,0,0,1.73-1.76,31.34,31.34,0,0,1,1.52-8.53c.1-.3.22-.65-.15-.83s-.62,0-.83.35c-.79,1.17-1.64,2.29-2.39,3.48A10.06,10.06,0,0,0,44.11,56.2Z"/><path class="cls-1" d="M44.11,56.2a10.06,10.06,0,0,1,1.66-4.66c.75-1.19,1.6-2.31,2.39-3.48.21-.31.45-.55.83-.35s.25.53.15.83a31.34,31.34,0,0,0-1.52,8.53,1.68,1.68,0,0,1-1.73,1.76C44.77,58.81,44.1,58,44.11,56.2Z"/></svg>