<svg id="Layer_1" data-name="Layer 1" xmlns="http://www.w3.org/2000/svg" viewBox="0 0 672.67 672.67"><defs><style>.cls-1{fill:#c6144f;}.cls-2{fill:#fff;}</style></defs><title>phoneSVG</title><circle class="cls-1" cx="336.33" cy="336.33" r="332.92"/><path class="cls-2" d="M463,563.24c-23.1-.77-47-7.24-70.32-16.44-35.21-13.91-67.15-33.55-96.9-56.77-50-39-93.9-84-130-136.22-20.24-29.25-36.83-60.41-47.28-94.58-5.57-18.17-9.31-36.66-9.08-55.79a33.22,33.22,0,0,1,10.17-23.91q33.12-33.12,66.36-66.12c5.17-5.14,9.7-4.46,13.09,1.92l53.72,101c3.54,6.67,2.58,13.94-2.73,19.31-7.72,7.8-15.6,15.45-23.26,23.32-7.46,7.67-10.35,16.63-7.43,27.29,4,14.52,10.89,27.6,19,40.11,16.21,25,36.23,46.79,57.67,67.33,16.77,16.07,34.52,30.95,54.36,43.17,11.23,6.92,22.94,12.79,35.75,16.34,11.09,3.08,20.31.06,28.25-7.81,8.8-8.73,17.53-17.53,26.3-26.29,6.36-6.35,13.05-7.2,20.78-2.64q48.42,28.53,96.83,57.08c6,3.56,6.7,8.18,1.77,13.11q-33.4,33.45-66.86,66.84C485.88,560.71,477.28,563.64,463,563.24Z"/><path class="cls-2" d="M556.48,350h-16.8c-4.35,0-8.7-.08-13,0-1.93.06-2.58-.57-2.73-2.54-2.3-31.67-10.54-61.74-26-89.48-34.69-62.11-87-100.26-157-113.6-7.78-1.49-15.76-1.95-23.65-2.89l-1.81-.26V109.39c4,.19,8,.26,11.89.57,46.1,3.58,87.28,20.24,124.21,47.55,41.72,30.84,72.45,70.29,91,118.93a219.23,219.23,0,0,1,14.28,70c0,.75,0,1.51,0,2.27A9.45,9.45,0,0,1,556.48,350Z"/><path class="cls-2" d="M315.36,184.5c84.35,3.76,160.35,76,165.69,165.39-.9.05-1.81.14-2.72.14-8.9,0-17.8-.08-26.69.07-2.4,0-3.23-.63-3.49-3.05-2.46-22.38-9.53-43.24-21.86-62.08-25.54-39-61.47-61.74-107.93-67.37-2.28-.28-3.27-.78-3.23-3.35.17-9.09.06-18.17.08-27.26C315.21,186.16,315.3,185.33,315.36,184.5Z"/><path class="cls-2" d="M405.56,350H389.22c-2.93,0-5.87-.13-8.79,0-2.07.13-2.92-.61-3.48-2.61a83.74,83.74,0,0,0-27.07-42.36,82.35,82.35,0,0,0-32.07-17c-2-.55-2.69-1.39-2.66-3.48.12-8,.05-16,.05-24.63,20.34,2.59,38.11,10.15,53.53,23.09C389.45,300.51,401.62,322.68,405.56,350Z"/></svg>