<svg id="Layer_1" data-name="Layer 1" xmlns="http://www.w3.org/2000/svg" viewBox="0 0 120.59 80.16"><defs><style>.cls-1{fill:#184c86;}</style></defs><title>SHvector</title><path class="cls-1" d="M15.16,80.16l-.41-.08a3.71,3.71,0,0,1-1.41-.42,3.36,3.36,0,0,1-.54-.39,1.13,1.13,0,0,1-.37-1.22c.32-1,.61-2.11,1-3.14,1.5-4.16,3-8.31,4.54-12.47,2.29-6.31,4.6-12.61,7-18.88,1.17-3,2.3-6.05,3.22-9.15.29-1,.52-2,.77-3.06a3.46,3.46,0,0,0,.09-.72,1.73,1.73,0,0,0,0-.51c-.06-.26-.22-.36-.47-.26a3,3,0,0,0-.73.39c-.54.43-1.09.86-1.59,1.34C25,32.76,23.77,34,22.57,35.17c-1.69,1.7-3.36,3.44-5.15,5a18.81,18.81,0,0,1-5.84,3.66,9.61,9.61,0,0,1-3.93.74,3.89,3.89,0,0,1-1.5-.36c-.51-.24-.64-.53-.4-1a5.47,5.47,0,0,1,.68-1.08c.8-.92,1.62-1.84,2.47-2.72,2.15-2.23,4.34-4.42,6.37-6.78q1.64-1.91,3.13-3.93c.72-1,1.49-1.92,2.19-2.91A31.23,31.23,0,0,0,24,19.87a9,9,0,0,0,.76-2.55,1.93,1.93,0,0,0,0-.48c-.06-.42-.24-.6-.67-.6a4.88,4.88,0,0,0-.93.09,19.85,19.85,0,0,0-3.45,1.12c-1.95.79-3.87,1.65-5.83,2.41A46.7,46.7,0,0,1,5.75,22.3a11,11,0,0,1-2.86.25A3.13,3.13,0,0,1,0,19.82a2.79,2.79,0,0,1,.27-1.45,9.86,9.86,0,0,1,1.25-2,25.82,25.82,0,0,1,3.86-3.82A65.34,65.34,0,0,1,15,6.19,82.5,82.5,0,0,1,23.83,2,27,27,0,0,1,30.38.24c.69-.09,1.4-.12,2.1-.19l.3,0h.07l.62.08c.25,0,.5.07.75.12a.74.74,0,0,1,.47.38,1.3,1.3,0,0,1-.2,1.63A4.27,4.27,0,0,1,33.37,3a18.34,18.34,0,0,1-2.79,1.14c-1.82.61-3.64,1.2-5.45,1.82A36.57,36.57,0,0,0,15,11.54a33.55,33.55,0,0,0-4.3,3.77c-.38.39-.72.82-1.06,1.24a2.83,2.83,0,0,0-.29.47c-.16.33-.07.47.29.43a2.49,2.49,0,0,0,.6-.14c.76-.29,1.51-.58,2.26-.89,2.06-.87,4.11-1.78,6.19-2.63a37.83,37.83,0,0,1,6.06-1.94,17,17,0,0,1,3.09-.43,7.59,7.59,0,0,1,2.27.23,4.13,4.13,0,0,1,3.15,3.53,5.3,5.3,0,0,1-.44,3.11,11.1,11.1,0,0,1-2,3c-.74.83-1.53,1.61-2.3,2.41-.29.31-.59.61-.88.93a1.36,1.36,0,0,0-.24.38c-.06.16,0,.29.18.3a3.75,3.75,0,0,0,.82,0c.85-.13,1.69-.31,2.53-.42a10,10,0,0,1,3.32,0,3.4,3.4,0,0,1,2.94,3.25A6.69,6.69,0,0,1,37,30.47a69.17,69.17,0,0,1-2.28,7.6c-1.48,4.18-3,8.36-4.44,12.55-.74,2.1-1.47,4.21-2.15,6.33-.78,2.43-1.78,4.78-2.66,7.18Q24,68,22.57,71.9a37,37,0,0,1-1.88,4.28,11,11,0,0,1-1.35,2.1,9,9,0,0,1-1,1,2.93,2.93,0,0,1-1.69.64c-.4,0-.79.15-1.18.22Z"/><path class="cls-1" d="M70.18,23.34h-2V13.06c-.19.06-.24.2-.31.3-1.19,1.7-2.38,3.39-3.56,5.09-.32.45-.64.9-.95,1.36a.45.45,0,0,1-.43.21,1.18,1.18,0,0,1-1.08-.63c-1.41-2-2.86-4-4.3-6-.08-.11-.16-.22-.26-.34-.13.12-.08.26-.09.37V23.3a7.52,7.52,0,0,1-1.78,0c-.08-.26-.09-12.21,0-12.56h.65c.45,0,.9,0,1.35,0A.58.58,0,0,1,58,11c1.49,2.16,3,4.3,4.51,6.45l.27.38.26-.35,4.41-6.39a.94.94,0,0,1,.16-.23.57.57,0,0,1,.25-.14h2.31c0,1.06,0,2.11,0,3.16v9.42Z"/><path class="cls-1" d="M100.22,17.47a3.94,3.94,0,0,1,1.71,1.21,43.62,43.62,0,0,1,3.75,4.5l.07.15-.21,0c-.61,0-1.23,0-1.84,0a.48.48,0,0,1-.42-.24c-.72-1-1.43-1.94-2.18-2.87a15.86,15.86,0,0,0-1.4-1.44,6,6,0,0,0-.87-.63A1.43,1.43,0,0,0,98,18H96.13c0,.16,0,.29,0,.43v4.9a8.53,8.53,0,0,1-2,0V10.79a2.85,2.85,0,0,1,.29,0c1.39,0,2.78,0,4.17,0a8.33,8.33,0,0,1,3.26.69,5.47,5.47,0,0,1,1,.62,2.87,2.87,0,0,1-.45,4.69,6,6,0,0,1-1.89.56l-.25.06ZM96,12.22a37.27,37.27,0,0,0,0,4.38h3.21a3.16,3.16,0,0,0,1.52-.42,2.06,2.06,0,0,0,0-3.53,3.29,3.29,0,0,0-1.62-.45H96.35Z"/><path class="cls-1" d="M68.8,40.33a9.84,9.84,0,0,1-4.11-.86,6,6,0,0,1-2.35-1.79,5.29,5.29,0,0,1-1.1-2.9,7.33,7.33,0,0,1,.24-2.64,5.22,5.22,0,0,1,3-3.38,9,9,0,0,1,3-.77,12.82,12.82,0,0,1,2.77,0,8,8,0,0,1,3,.85A5.16,5.16,0,0,1,76,32.59a6.34,6.34,0,0,1-.24,3.48,6.11,6.11,0,0,1-2.6,3.07A8,8,0,0,1,68.8,40.33Zm-5.59-6.55a4.31,4.31,0,0,0,2,4.06,6.36,6.36,0,0,0,5.68.68,4.8,4.8,0,0,0,3.24-3.34,4.93,4.93,0,0,0,.13-2.06,4.17,4.17,0,0,0-2.9-3.66,6.66,6.66,0,0,0-1.87-.36,8.07,8.07,0,0,0-3.57.52,4.09,4.09,0,0,0-2.31,2.27A5.16,5.16,0,0,0,63.21,33.78Z"/><path class="cls-1" d="M89.18,23.36H87.27c-.18,0-.22-.14-.27-.26l-.92-2c-.13-.28-.27-.54-.38-.82a.38.38,0,0,0-.42-.27H82.4c-1.2,0-2.4,0-3.6,0a.47.47,0,0,0-.5.31c-.39.92-.81,1.82-1.21,2.73a.43.43,0,0,1-.47.3c-.52,0-1,0-1.56,0l-.24,0C76.9,19.12,79,15,81,10.76h1c.3,0,.6,0,.9,0a.35.35,0,0,1,.37.24c.22.48.46,1,.69,1.44L89,23C89.07,23.09,89.11,23.2,89.18,23.36ZM82,12.67c-.93,1.9-1.83,3.75-2.75,5.65h5.38C84.58,18.06,82.33,13.21,82,12.67Z"/><path class="cls-1" d="M44.27,34.57v3.59c0,.6,0,1.19,0,1.81h-1.8c-.09-.25-.11-11.5,0-11.91h1.92V33c.28.1,7.22.13,7.93.05,0-.12,0-.26,0-.39V28.06c.69,0,1.34,0,2,0V39.92a8.94,8.94,0,0,1-2,0c0-.14,0-.28,0-.43V34.58C52,34.49,44.65,34.48,44.27,34.57Z"/><path class="cls-1" d="M49.12,11.15c0,.54-.09,1-.13,1.57l-.06.12-.29-.06a18.26,18.26,0,0,0-3.44-.62,5.27,5.27,0,0,0-2.09.2,1.48,1.48,0,0,0-1.06,1,1.3,1.3,0,0,0,.4,1.48,5.5,5.5,0,0,0,1,.67c.84.38,1.7.71,2.55,1.08a18.71,18.71,0,0,1,1.79.9,5.32,5.32,0,0,1,1.06.83,2.78,2.78,0,0,1-.73,4.41,5.92,5.92,0,0,1-2.13.57,17.07,17.07,0,0,1-4.89-.39l-1-.23c-.11,0-.2-.08-.2-.2V21.14l.3.07a18.46,18.46,0,0,0,3.35.84,6.44,6.44,0,0,0,2.55,0,1.9,1.9,0,0,0,1.51-1.37,1.28,1.28,0,0,0-.49-1.51,7.94,7.94,0,0,0-1.2-.69c-.78-.34-1.59-.63-2.38-1a16.49,16.49,0,0,1-1.61-.72,7,7,0,0,1-1.21-.8A2.18,2.18,0,0,1,40,13.65a3.11,3.11,0,0,1,1.61-2.11,6.42,6.42,0,0,1,2.38-.7,17.5,17.5,0,0,1,4.9.22l.14,0Z"/><path class="cls-1" d="M97.36,40.1V27.88c.29-.08,8-.09,8.4,0v1.19c-.76,0-1.5,0-2.23,0H99.14a30.8,30.8,0,0,0,0,4.2c.63.07,1.28,0,1.92,0h3.87v1.17H99.15c0,1.48,0,2.92.07,4.39h6.51v1.22C105.47,40.18,97.67,40.18,97.36,40.1Z"/><path class="cls-1" d="M112.82,23.34V12.22c-.41,0-.8,0-1.19,0h-3.46a4.56,4.56,0,0,1,0-1.44h11.14v1.43h-4.56c0,1,0,1.88,0,2.8v8.35Z"/><path class="cls-1" d="M84.71,29.23H80.12a12.72,12.72,0,0,1,0-1.38c.74-.07,1.46,0,2.19,0s1.45,0,2.18,0h6.57v1.39H88.83c-.74,0-1.47,0-2.26,0,0,.94,0,1.84,0,2.74s0,1.82,0,2.74v5.42H84.71Z"/><path class="cls-1" d="M112.48,40.11V28h1.85V38.63l.45,0h5.79c0,.5,0,1,0,1.42C120.3,40.17,112.85,40.19,112.48,40.11Z"/></svg>