<svg id="Layer_1" data-name="Layer 1" xmlns="http://www.w3.org/2000/svg" viewBox="0 0 100.42 100.42"><defs><style>.cls-1{fill:#fee96e;}.cls-2{fill:#fefefe;}.cls-3{fill:#fee96f;}</style></defs><title>tele</title><path class="cls-1" d="M49.63.23A49.9,49.9,0,0,1,73.4,5.76,49.6,49.6,0,0,1,99,38.75a50.18,50.18,0,0,1,1.16,8.47,50,50,0,0,1-2.91,20.39A48.91,48.91,0,0,1,78.87,91.37a49.45,49.45,0,0,1-19.24,8,52.28,52.28,0,0,1-13.51.66A49.67,49.67,0,0,1,5.53,73,48.84,48.84,0,0,1,.8,58.18,53.48,53.48,0,0,1,.27,47.76,49.55,49.55,0,0,1,41,1,41.58,41.58,0,0,1,49.63.23ZM44.41,62.12c-.79.34-1.49.63-2.16,1-.36.16-1,.31-.87.72s.7.3,1.1.3H58c.39,0,1,.16,1.07-.31s-.54-.53-.9-.71a13.36,13.36,0,0,1-2.1-1c2-.4,3.88-.83,5.77-1.14a4,4,0,0,0,3.76-4.29V40.56a3.05,3.05,0,0,0-3.19-3.22q-12.16,0-24.33,0a3,3,0,0,0-3.17,3.16V56.93a3.82,3.82,0,0,0,3,3.82c1.21.27,2.43.48,3.64.74A17.58,17.58,0,0,1,44.41,62.12Z"/><path class="cls-2" d="M44.41,62.12a17.58,17.58,0,0,0-2.84-.63c-1.21-.26-2.43-.47-3.64-.74a3.82,3.82,0,0,1-3-3.82V40.5a3,3,0,0,1,3.17-3.16q12.17,0,24.33,0a3.05,3.05,0,0,1,3.19,3.22V56.62a4,4,0,0,1-3.76,4.29c-1.89.31-3.76.74-5.77,1.14a13.36,13.36,0,0,0,2.1,1c.36.18,1,.33.9.71s-.68.31-1.07.31H42.48c-.4,0-1,.16-1.1-.3s.51-.56.87-.72C42.92,62.75,43.62,62.46,44.41,62.12Zm5.85-22c-3.83,0-7.65,0-11.47,0-.69,0-.86.21-.86.87q0,7.56,0,15.12c0,.66.17.87.86.87q11.43,0,22.87,0c.69,0,.86-.21.86-.87q0-7.56,0-15.12c0-.66-.17-.88-.86-.87C57.86,40.14,54.06,40.12,50.26,40.12Z"/><path class="cls-3" d="M50.26,40.12c3.8,0,7.6,0,11.4,0,.69,0,.86.21.86.87q0,7.56,0,15.12c0,.66-.17.87-.86.87q-11.43,0-22.87,0c-.69,0-.87-.21-.86-.87q0-7.56,0-15.12c0-.66.17-.88.86-.87C42.61,40.14,46.43,40.12,50.26,40.12Z"/></svg>