<svg id="Layer_1" data-name="Layer 1" xmlns="http://www.w3.org/2000/svg" viewBox="0 0 100.42 100.42"><defs><style>.cls-1{fill:#b2a2c6;}.cls-2{fill:#fdfcfd;}</style></defs><title>travel</title><path class="cls-1" d="M100.18,50a47.65,47.65,0,0,1-3.41,18.88A49.57,49.57,0,0,1,77.94,92a50.05,50.05,0,0,1-19.65,7.6,52.72,52.72,0,0,1-11.36.52A49.55,49.55,0,0,1,1.42,61.65,53.84,53.84,0,0,1,.3,46.73,47,47,0,0,1,3.92,30.9a49,49,0,0,1,8-13A49.76,49.76,0,0,1,41.74.9,50.38,50.38,0,0,1,53.31.31a49.65,49.65,0,0,1,24,7.75A48.55,48.55,0,0,1,86.91,16a49.54,49.54,0,0,1,9.5,14.7,50.15,50.15,0,0,1,3.43,12.71A36.69,36.69,0,0,1,100.18,50ZM58.3,52.78h4.24a4.36,4.36,0,0,0,2.4-.75,1.49,1.49,0,0,0,0-2.67,6.09,6.09,0,0,0-3.53-.91c-2.51,0-5,0-7.53,0a.93.93,0,0,1-1-.5c-1.82-3.24-3.67-6.45-5.46-9.69-1.13-2.05-1.09-2.07-3.43-2h-.15c-.52,0-.63.2-.46.68.31.91.59,1.84.88,2.76.85,2.73,1.69,5.45,2.55,8.17.16.48,0,.6-.44.6-1.27,0-2.54,0-3.8,0a2.38,2.38,0,0,1-1.93-.76C39.33,46.35,38,45,35.78,45.47a.32.32,0,0,1-.14,0c-.55-.06-.56.16-.35.58.65,1.35,1.27,2.72,1.92,4.07a.94.94,0,0,1,0,.89c-.67,1.37-1.3,2.76-2,4.14-.22.46-.18.71.43.66a12.36,12.36,0,0,1,1.61,0,1.58,1.58,0,0,0,1.26-.43c.64-.6,1.31-1.15,2-1.74a2.65,2.65,0,0,1,1.77-.88h3.95c.61,0,.72.23.53.81C45.7,57,44.64,60.37,43.57,63.76,43.19,65,43.18,65,44.44,65c1.92,0,1.89,0,2.81-1.66C49.11,60,51,56.7,52.87,53.38A1.08,1.08,0,0,1,54,52.77C55.42,52.79,56.86,52.78,58.3,52.78Z"/><path class="cls-2" d="M58.3,52.78c-1.44,0-2.88,0-4.32,0a1.08,1.08,0,0,0-1.11.61C51,56.7,49.11,60,47.25,63.31,46.33,65,46.36,65,44.44,65c-1.26,0-1.25,0-.87-1.21,1.07-3.39,2.13-6.79,3.22-10.17.19-.58.08-.82-.53-.81H42.31a2.65,2.65,0,0,0-1.77.88c-.65.59-1.32,1.14-2,1.74a1.58,1.58,0,0,1-1.26.43,12.36,12.36,0,0,0-1.61,0c-.61,0-.65-.2-.43-.66.66-1.38,1.29-2.77,2-4.14a.94.94,0,0,0,0-.89c-.65-1.35-1.27-2.72-1.92-4.07-.21-.42-.2-.64.35-.58a.32.32,0,0,0,.14,0c2.2-.51,3.55.88,4.88,2.21a2.38,2.38,0,0,0,1.93.76c1.26-.06,2.53,0,3.8,0,.46,0,.6-.12.44-.6-.86-2.72-1.7-5.44-2.55-8.17-.29-.92-.57-1.85-.88-2.76-.17-.48-.06-.7.46-.68H44c2.34,0,2.3,0,3.43,2,1.79,3.24,3.64,6.45,5.46,9.69a.93.93,0,0,0,1,.5c2.51,0,5,0,7.53,0a6.09,6.09,0,0,1,3.53.91,1.49,1.49,0,0,1,0,2.67,4.36,4.36,0,0,1-2.4.75H58.3Z"/></svg>