<svg id="Layer_1" data-name="Layer 1" xmlns="http://www.w3.org/2000/svg" viewBox="0 0 100.42 100.42"><defs><style>.cls-1{fill:#fe7d80;}.cls-2{fill:#fef9f9;}</style></defs><title>wifi</title><path class="cls-1" d="M.21,50.19c0-28,22.05-50,50.17-50s49.86,22.11,49.83,50.32c0,27.77-22.17,49.7-50.17,49.68A49.53,49.53,0,0,1,.21,50.19ZM41,36.84c-1.24.12-2.94-.55-3.18,1.77-.22,2.11.66,2.7,2.73,3,9.72,1.59,15.48,7.56,17,17.53.35,2.39,1.79,2,3.32,2.09,1.92.11,2-1.09,1.85-2.45a28.88,28.88,0,0,0-.63-3.7C59.64,45.36,50,37,41,36.84Zm-.86,8.72c-1.1-.08-2.25,0-2.29,1.69,0,1.35-.25,2.73,1.78,3a11.63,11.63,0,0,1,3.81,1.38,10.25,10.25,0,0,1,5.36,7.87c.32,2.26,2,1.67,3.35,1.72s1.77-.82,1.72-2.08C53.68,53,46.38,45.64,40.17,45.56Zm1.35,15.72a3.23,3.23,0,0,0,3.53-3.39,3.2,3.2,0,0,0-3.32-3.61,3.5,3.5,0,1,0-.21,7Z"/><path class="cls-2" d="M41,36.84c9,.14,18.61,8.52,21,18.29a28.88,28.88,0,0,1,.63,3.7c.17,1.36.07,2.56-1.85,2.45-1.53-.09-3,.3-3.32-2.09-1.47-10-7.23-15.94-17-17.53-2.07-.35-2.95-.94-2.73-3C38.09,36.29,39.79,37,41,36.84Z"/><path class="cls-2" d="M40.17,45.56c6.21.08,13.51,7.42,13.73,13.61.05,1.26-.27,2.13-1.72,2.08s-3,.54-3.35-1.72a10.25,10.25,0,0,0-5.36-7.87,11.63,11.63,0,0,0-3.81-1.38c-2-.3-1.81-1.68-1.78-3C37.92,45.61,39.07,45.48,40.17,45.56Z"/><path class="cls-2" d="M41.52,61.28a3.5,3.5,0,1,1,.21-7,3.2,3.2,0,0,1,3.32,3.61A3.23,3.23,0,0,1,41.52,61.28Z"/></svg>