<svg id="Layer_1" data-name="Layer 1" xmlns="http://www.w3.org/2000/svg" viewBox="0 0 56 63.93"><defs><style>.cls-1{fill:#3c4041;}</style></defs><title>CALENDARIO</title><path class="cls-1" d="M821.09,919.46h-4.32v-2.93a3,3,0,1,0-6,0v2.93h-24v-2.93a3,3,0,1,0-6,0v2.93h-4.28a5.7,5.7,0,0,0-5.7,5.7v46.6a5.7,5.7,0,0,0,5.7,5.7h44.6a5.7,5.7,0,0,0,5.7-5.7v-46.6A5.7,5.7,0,0,0,821.09,919.46Zm-42.32,4h2v1a3,3,0,1,0,6,0v-1h2v6h-10v-6Zm30,0h2v1a3,3,0,1,0,6,0v-1h2v6h-10v-6Zm12.33,50h-44.6a1.7,1.7,0,0,1-1.7-1.7v-0.56a5.69,5.69,0,0,0,1.7.26h44.6a5.69,5.69,0,0,0,1.7-.26v0.56A1.7,1.7,0,0,1,821.09,973.46Zm1.7-7.7a1.7,1.7,0,0,1-1.7,1.7h-44.6a1.7,1.7,0,0,1-1.7-1.7V933.46h48v32.31Z" transform="translate(-770.79 -913.53)"/><polygon class="cls-1" points="14.56 30.52 17.39 33.34 19.98 30.76 19.98 45.93 23.98 45.93 23.98 25.93 19.15 25.93 14.56 30.52"/><polygon class="cls-1" points="27.98 29.92 34.91 29.92 27.86 45.93 32.23 45.93 38.97 30.64 38.97 25.92 27.98 25.92 27.98 29.92"/></svg>